<svg width="119" height="44" viewBox="0 0 119 44" fill="none" xmlns="http://www.w3.org/2000/svg">
    <path
        d="M37.3442 18.4894V6.93738H39.8722V16.5214H44.8322V18.4894H37.3442ZM54.3149 14.1054C54.3149 15.556 53.9309 16.676 53.1629 17.4654C52.4055 18.2547 51.3709 18.6494 50.0589 18.6494C49.2482 18.6494 48.5229 18.4734 47.8829 18.1214C47.2535 17.7694 46.7575 17.2574 46.3949 16.5854C46.0322 15.9027 45.8509 15.076 45.8509 14.1054C45.8509 12.6547 46.2295 11.54 46.9869 10.7614C47.7442 9.98271 48.7842 9.59338 50.1069 9.59338C50.9282 9.59338 51.6535 9.76938 52.2829 10.1214C52.9122 10.4734 53.4082 10.9854 53.7709 11.6574C54.1335 12.3294 54.3149 13.1454 54.3149 14.1054ZM48.2829 14.1054C48.2829 14.9694 48.4215 15.6254 48.6989 16.0734C48.9869 16.5107 49.4509 16.7294 50.0909 16.7294C50.7202 16.7294 51.1735 16.5107 51.4509 16.0734C51.7389 15.6254 51.8829 14.9694 51.8829 14.1054C51.8829 13.2414 51.7389 12.596 51.4509 12.1694C51.1735 11.732 50.7149 11.5134 50.0749 11.5134C49.4455 11.5134 48.9869 11.732 48.6989 12.1694C48.4215 12.596 48.2829 13.2414 48.2829 14.1054ZM52.7469 7.14538V8.79338H47.4509V7.14538H52.7469ZM56.1091 18.4894V6.92138H58.4611V13.7374L60.9091 10.3614H63.5811L60.8131 13.8814L63.7571 18.4894H60.9571L58.4611 14.0894V18.4894H56.1091ZM71.7254 18.4894H69.5814C69.5014 17.9934 69.5014 17.6254 69.5014 17.3854C68.6054 18.6814 67.5334 18.6814 67.0854 18.6814C65.9174 18.6814 65.3894 18.3454 65.0694 18.0414C64.5894 17.5614 64.3654 16.9054 64.3654 16.2654C64.3654 15.6254 64.5894 14.4414 66.0774 13.7534C67.0694 13.3054 68.4934 13.3054 69.2774 13.3054C69.2774 12.7774 69.2614 12.5214 69.1654 12.2334C68.9574 11.6414 68.3334 11.5614 68.1094 11.5614C67.7734 11.5614 67.4214 11.7054 67.2134 12.0094C67.0374 12.2814 67.0374 12.5374 67.0374 12.7294H64.7174C64.7334 12.2974 64.7814 11.4334 65.6294 10.8254C66.3654 10.2974 67.3094 10.1694 68.0774 10.1694C68.7494 10.1694 70.1574 10.2814 70.9574 11.2094C71.5014 11.8654 71.5174 12.8254 71.5174 13.1934L71.5334 16.4414C71.5334 17.1294 71.5814 17.8174 71.7254 18.4894ZM69.2774 14.6814C67.7574 14.5534 66.6694 15.0334 66.6694 15.9934C66.6694 16.5374 67.0374 17.1454 67.8214 17.1454C68.2534 17.1454 68.6054 16.9374 68.8294 16.6814C69.2454 16.1694 69.2774 15.5454 69.2774 14.6814ZM73.688 18.4894V6.93738H76.04V11.5134C76.312 11.1294 76.904 10.2974 78.376 10.2974C79.576 10.2974 80.344 10.8894 80.728 11.3854C81.016 11.7854 81.256 12.5214 81.256 13.5774V18.4894H78.904V13.6574C78.904 13.1934 78.904 11.8974 77.576 11.8974C76.904 11.8974 76.056 12.2814 76.056 13.5454L76.072 18.4894H73.688ZM83.3252 9.00138V6.93738H85.8532V9.00138H83.3252ZM83.4052 18.4894V10.3934H85.7732V18.4894H83.4052Z"
        fill="#005B80" />
    <path
        d="M37.2802 32.611V21.075L41.1042 21.091C41.7442 21.091 43.6962 21.107 45.0882 22.131C46.5442 23.203 47.0562 25.027 47.0562 26.675C47.0562 30.227 45.1522 32.083 42.9602 32.483C42.5282 32.563 42.0482 32.611 40.8802 32.611H37.2802ZM39.7922 22.947V30.707C40.0642 30.723 40.4802 30.739 40.7682 30.739C41.8242 30.739 42.7362 30.659 43.4562 29.939C44.4322 28.963 44.4962 27.235 44.4962 26.675C44.4962 25.043 43.9362 23.539 42.3842 23.107C41.8722 22.963 41.2162 22.883 39.7922 22.947ZM55.4129 32.611H53.2689C53.1889 32.115 53.1889 31.747 53.1889 31.507C52.2929 32.803 51.2209 32.803 50.7729 32.803C49.6049 32.803 49.0769 32.467 48.7569 32.163C48.2769 31.683 48.0529 31.027 48.0529 30.387C48.0529 29.747 48.2769 28.563 49.7649 27.875C50.7569 27.427 52.1809 27.427 52.9649 27.427C52.9649 26.899 52.9489 26.643 52.8529 26.355C52.6449 25.763 52.0209 25.683 51.7969 25.683C51.4609 25.683 51.1089 25.827 50.9009 26.131C50.7249 26.403 50.7249 26.659 50.7249 26.851H48.4049C48.4209 26.419 48.4689 25.555 49.3169 24.947C50.0529 24.419 50.9969 24.291 51.7649 24.291C52.4369 24.291 53.8449 24.403 54.6449 25.331C55.1889 25.987 55.2049 26.947 55.2049 27.315L55.2209 30.563C55.2209 31.251 55.2689 31.939 55.4129 32.611ZM52.9649 28.803C51.4449 28.675 50.3569 29.155 50.3569 30.115C50.3569 30.659 50.7249 31.267 51.5089 31.267C51.9409 31.267 52.2929 31.059 52.5169 30.803C52.9329 30.291 52.9649 29.667 52.9649 28.803ZM56.7355 30.275H58.9595C58.9915 30.787 59.3115 31.379 60.3035 31.379C61.1515 31.379 61.5515 30.899 61.5515 30.419C61.5515 30.051 61.3595 29.763 60.4315 29.507L58.9595 29.107C58.3035 28.915 56.9115 28.515 56.9115 26.867C56.9115 25.299 58.3515 24.339 60.4475 24.339C62.1115 24.339 63.4555 25.107 63.5195 26.723H61.3595C61.2955 25.827 60.5755 25.763 60.2075 25.763C59.5675 25.763 59.0875 26.067 59.0875 26.563C59.0875 27.107 59.4875 27.219 60.1915 27.411L61.6475 27.811C63.1195 28.211 63.8075 28.963 63.8075 30.067C63.8075 31.459 62.6075 32.851 60.0955 32.851C59.0555 32.851 58.0635 32.627 57.3275 31.859C56.7995 31.299 56.7515 30.659 56.7355 30.275ZM65.3755 32.611V21.059H67.7275V25.635C67.9995 25.251 68.5915 24.419 70.0635 24.419C71.2635 24.419 72.0315 25.011 72.4155 25.507C72.7035 25.907 72.9435 26.643 72.9435 27.699V32.611H70.5915V27.779C70.5915 27.315 70.5915 26.019 69.2635 26.019C68.5915 26.019 67.7435 26.403 67.7435 27.667L67.7595 32.611H65.3755ZM75.0127 32.611V21.075H77.3807V25.507C78.1807 24.451 79.2527 24.419 79.6687 24.419C81.6367 24.419 83.1887 25.971 83.1887 28.691C83.1887 31.715 81.4287 32.771 79.8127 32.771C79.3967 32.771 78.1167 32.739 77.3807 31.475C77.3647 31.731 77.3487 32.115 77.3007 32.611H75.0127ZM80.7727 28.771C80.7727 28.131 80.7407 26.003 79.0287 26.003C77.2847 26.003 77.2847 27.987 77.2847 28.499C77.2847 30.339 78.0687 31.219 79.1407 31.219C80.7727 31.219 80.7727 29.187 80.7727 28.771ZM84.506 28.643C84.506 26.691 85.498 24.339 88.682 24.339C91.61 24.339 92.874 26.323 92.874 28.579C92.874 30.851 91.562 32.899 88.634 32.899C86.33 32.899 84.506 31.475 84.506 28.643ZM86.938 28.659C86.938 30.467 87.546 31.251 88.714 31.251C89.754 31.251 90.458 30.627 90.458 28.483C90.458 27.411 90.25 25.923 88.682 25.923C86.954 25.923 86.938 27.923 86.938 28.659ZM101.647 32.611H99.5032C99.4232 32.115 99.4232 31.747 99.4232 31.507C98.5272 32.803 97.4552 32.803 97.0072 32.803C95.8392 32.803 95.3112 32.467 94.9912 32.163C94.5112 31.683 94.2872 31.027 94.2872 30.387C94.2872 29.747 94.5112 28.563 95.9992 27.875C96.9912 27.427 98.4152 27.427 99.1992 27.427C99.1992 26.899 99.1832 26.643 99.0872 26.355C98.8792 25.763 98.2552 25.683 98.0312 25.683C97.6952 25.683 97.3432 25.827 97.1352 26.131C96.9592 26.403 96.9592 26.659 96.9592 26.851H94.6392C94.6552 26.419 94.7032 25.555 95.5512 24.947C96.2872 24.419 97.2312 24.291 97.9992 24.291C98.6712 24.291 100.079 24.403 100.879 25.331C101.423 25.987 101.439 26.947 101.439 27.315L101.455 30.563C101.455 31.251 101.503 31.939 101.647 32.611ZM99.1992 28.803C97.6792 28.675 96.5912 29.155 96.5912 30.115C96.5912 30.659 96.9592 31.267 97.7432 31.267C98.1752 31.267 98.5272 31.059 98.7512 30.803C99.1672 30.291 99.1992 29.667 99.1992 28.803ZM103.546 32.611V26.515C103.546 26.131 103.482 24.963 103.434 24.499H105.658L105.706 26.051C106.01 25.363 106.538 24.387 108.458 24.483V26.611C106.058 26.387 105.914 27.619 105.914 28.627V32.611H103.546ZM114.796 25.523V21.059H117.18V31.299C117.18 31.779 117.212 32.307 117.244 32.611H114.844L114.78 31.443C114.62 31.731 114.46 32.035 113.964 32.355C113.372 32.739 112.748 32.771 112.396 32.771C110.236 32.771 108.956 31.283 108.956 28.755C108.956 26.083 110.412 24.419 112.524 24.419C113.98 24.419 114.588 25.235 114.796 25.523ZM111.356 28.691C111.356 30.035 111.804 31.235 112.988 31.235C113.676 31.235 114.236 30.819 114.492 30.323C114.844 29.651 114.876 28.819 114.876 28.419C114.876 26.835 114.188 25.971 113.116 25.971C111.532 25.971 111.356 27.875 111.356 28.691Z"
        fill="#005B80" />
    <path d="M17.7025 26.7732L28.0548 20.7963L28.0548 32.7501L17.7025 26.7732Z" fill="#93DCE8" />
    <path d="M18.1628 12.8784L28.5151 6.90153L28.5151 18.8553L18.1628 12.8784Z" fill="#94E2C4" />
    <path d="M6.05432 20.0481L16.4066 14.0712L16.4066 26.025L6.05432 20.0481Z" fill="#57C9E8" />
    <path d="M18.4808 23.7596L18.4808 15.595L25.5515 19.6773L18.4808 23.7596Z" fill="#006E87" />
</svg>